<svg xmlns="http://www.w3.org/2000/svg" viewBox="0 0 274.99 368.64"><defs><style>.cls-1{fill:#f68a20;}.cls-1,.cls-2{fill-rule:evenodd;}.cls-2{fill:#fee02a;}</style></defs><g id="Warstwa_2" data-name="Warstwa 2"><g id="Layer_1" data-name="Layer 1"><path class="cls-1" d="M37.19,135.6a78.07,78.07,0,0,1-1.79,20.84c-1.72,7.73-5.23,17.43-9.71,24.15C-3.51,227.72-12,282.39,22.39,329.2c10.39,14.16,25.1,27.45,41.2,34.77,5.07,2.31,11.22,4.42,16.83,4.65,1.68.07,5.08,0,6.44-1.27a4.58,4.58,0,0,0,1-2.53,12.59,12.59,0,0,1,15.88-10.32c26.8,7.21,74.77,17.09,100.53,1,13.35-8.33,14.7-27.5,27.33-26.95a24.36,24.36,0,0,0,10.44-1.75c13.5-5.51,21.57-22.84,25.69-35.8,6.73-21.2,8.31-45.8,6.59-67.89a193,193,0,0,0-6.91-38.7,88.62,88.62,0,0,1-7.59,19.66c-3.79,7-10.36,16-17.32,20.36L223.91,236V214.09c0-76.76-24.1-147.78-92.23-189A214.26,214.26,0,0,0,69.06,0c12.4,16.44,23.73,34.24,31,52.46,7.89,19.88,10.67,39.86,5.41,60.81-4.66,18.57-14.92,35.08-25.81,50.59L69.24,178.65l-9.82-15.17A217,217,0,0,0,37.19,135.6Z"/><path class="cls-2" d="M68.6,366a40.79,40.79,0,0,0,11.82,2.6c1.68.07,5.08,0,6.44-1.27a4.58,4.58,0,0,0,1-2.53,12.59,12.59,0,0,1,15.88-10.32c23.5,6.32,63.25,14.69,90.06,5.82,16.71-18.71,39.65-48.75,4.06-94,2.52,30.4-11.66,39.22-11.66,39.22,0-116.57-102.07-120-102.07-120,39.61,46,32.72,65.76,15.51,90.27-4.87-7.52-18-24.28-27.81-26.18a34.48,34.48,0,0,1-.38,35.08C52.14,318.8,56.73,347,68.6,366Z"/></g></g></svg>